<mxfile host="app.diagrams.net" modified="2024-03-29T01:37:19.665Z" agent="Mozilla/5.0 (Windows NT 10.0; Win64; x64) AppleWebKit/537.36 (KHTML, like Gecko) Chrome/123.0.0.0 Safari/537.36" etag="SuwiBe71P9DJhOUAOh3y" version="24.2.1" type="github">
  <diagram id="R2lEEEUBdFMjLlhIrx00" name="Page-1">
    <mxGraphModel dx="1050" dy="557" grid="1" gridSize="10" guides="1" tooltips="1" connect="1" arrows="1" fold="1" page="1" pageScale="1" pageWidth="1400" pageHeight="850" math="0" shadow="0" extFonts="Permanent Marker^https://fonts.googleapis.com/css?family=Permanent+Marker">
      <root>
        <mxCell id="0" />
        <mxCell id="1" parent="0" />
        <mxCell id="5DY0pSpCPIeUGOgnQsvo-46" style="edgeStyle=orthogonalEdgeStyle;rounded=0;orthogonalLoop=1;jettySize=auto;html=1;exitX=1;exitY=0.5;exitDx=0;exitDy=0;entryX=0;entryY=0.5;entryDx=0;entryDy=0;endArrow=none;endFill=0;" parent="1" source="5DY0pSpCPIeUGOgnQsvo-1" target="5DY0pSpCPIeUGOgnQsvo-19" edge="1">
          <mxGeometry relative="1" as="geometry" />
        </mxCell>
        <mxCell id="9x-W5iKNOteX7X35HXdL-45" style="edgeStyle=orthogonalEdgeStyle;rounded=0;orthogonalLoop=1;jettySize=auto;html=1;exitX=1;exitY=1;exitDx=0;exitDy=0;entryX=0;entryY=0.5;entryDx=0;entryDy=0;endArrow=none;endFill=0;" edge="1" parent="1" source="5DY0pSpCPIeUGOgnQsvo-1" target="5DY0pSpCPIeUGOgnQsvo-20">
          <mxGeometry relative="1" as="geometry" />
        </mxCell>
        <mxCell id="5DY0pSpCPIeUGOgnQsvo-1" value="UsuÃ¡rio" style="whiteSpace=wrap;html=1;aspect=fixed;" parent="1" vertex="1">
          <mxGeometry x="300" y="260" width="80" height="80" as="geometry" />
        </mxCell>
        <mxCell id="9x-W5iKNOteX7X35HXdL-54" style="edgeStyle=orthogonalEdgeStyle;rounded=0;orthogonalLoop=1;jettySize=auto;html=1;exitX=1;exitY=0.5;exitDx=0;exitDy=0;entryX=0;entryY=0;entryDx=0;entryDy=0;endArrow=none;endFill=0;" edge="1" parent="1" source="5DY0pSpCPIeUGOgnQsvo-2" target="5DY0pSpCPIeUGOgnQsvo-1">
          <mxGeometry relative="1" as="geometry" />
        </mxCell>
        <mxCell id="5DY0pSpCPIeUGOgnQsvo-2" value="" style="ellipse;whiteSpace=wrap;html=1;aspect=fixed;fillColor=#000000;" parent="1" vertex="1">
          <mxGeometry x="250" y="205" width="40" height="40" as="geometry" />
        </mxCell>
        <mxCell id="9x-W5iKNOteX7X35HXdL-53" style="edgeStyle=orthogonalEdgeStyle;rounded=0;orthogonalLoop=1;jettySize=auto;html=1;exitX=1;exitY=0.5;exitDx=0;exitDy=0;entryX=0;entryY=0.25;entryDx=0;entryDy=0;endArrow=none;endFill=0;" edge="1" parent="1" source="5DY0pSpCPIeUGOgnQsvo-4" target="5DY0pSpCPIeUGOgnQsvo-1">
          <mxGeometry relative="1" as="geometry" />
        </mxCell>
        <mxCell id="5DY0pSpCPIeUGOgnQsvo-4" value="" style="ellipse;whiteSpace=wrap;html=1;aspect=fixed;" parent="1" vertex="1">
          <mxGeometry x="250" y="255" width="40" height="40" as="geometry" />
        </mxCell>
        <mxCell id="9x-W5iKNOteX7X35HXdL-56" style="edgeStyle=orthogonalEdgeStyle;rounded=0;orthogonalLoop=1;jettySize=auto;html=1;exitX=1;exitY=0.5;exitDx=0;exitDy=0;entryX=0;entryY=0.75;entryDx=0;entryDy=0;endArrow=none;endFill=0;" edge="1" parent="1" source="5DY0pSpCPIeUGOgnQsvo-5" target="5DY0pSpCPIeUGOgnQsvo-1">
          <mxGeometry relative="1" as="geometry" />
        </mxCell>
        <mxCell id="5DY0pSpCPIeUGOgnQsvo-5" value="" style="ellipse;whiteSpace=wrap;html=1;aspect=fixed;" parent="1" vertex="1">
          <mxGeometry x="250" y="305" width="40" height="40" as="geometry" />
        </mxCell>
        <mxCell id="9x-W5iKNOteX7X35HXdL-57" style="edgeStyle=orthogonalEdgeStyle;rounded=0;orthogonalLoop=1;jettySize=auto;html=1;exitX=1;exitY=0.5;exitDx=0;exitDy=0;entryX=0;entryY=1;entryDx=0;entryDy=0;endArrow=none;endFill=0;" edge="1" parent="1" source="5DY0pSpCPIeUGOgnQsvo-6" target="5DY0pSpCPIeUGOgnQsvo-1">
          <mxGeometry relative="1" as="geometry" />
        </mxCell>
        <mxCell id="5DY0pSpCPIeUGOgnQsvo-6" value="" style="ellipse;whiteSpace=wrap;html=1;aspect=fixed;" parent="1" vertex="1">
          <mxGeometry x="250" y="355" width="40" height="40" as="geometry" />
        </mxCell>
        <mxCell id="5DY0pSpCPIeUGOgnQsvo-48" style="edgeStyle=orthogonalEdgeStyle;rounded=0;orthogonalLoop=1;jettySize=auto;html=1;exitX=1;exitY=0.5;exitDx=0;exitDy=0;entryX=0;entryY=0.5;entryDx=0;entryDy=0;endArrow=none;endFill=0;" parent="1" source="5DY0pSpCPIeUGOgnQsvo-7" target="5DY0pSpCPIeUGOgnQsvo-21" edge="1">
          <mxGeometry relative="1" as="geometry" />
        </mxCell>
        <mxCell id="5DY0pSpCPIeUGOgnQsvo-7" value="Autor" style="whiteSpace=wrap;html=1;aspect=fixed;" parent="1" vertex="1">
          <mxGeometry x="300" y="540" width="80" height="80" as="geometry" />
        </mxCell>
        <mxCell id="5DY0pSpCPIeUGOgnQsvo-33" style="edgeStyle=orthogonalEdgeStyle;rounded=0;orthogonalLoop=1;jettySize=auto;html=1;exitX=0.75;exitY=1;exitDx=0;exitDy=0;entryX=0.5;entryY=0;entryDx=0;entryDy=0;endArrow=none;endFill=0;" parent="1" source="5DY0pSpCPIeUGOgnQsvo-8" target="5DY0pSpCPIeUGOgnQsvo-22" edge="1">
          <mxGeometry relative="1" as="geometry">
            <Array as="points">
              <mxPoint x="760" y="375" />
              <mxPoint x="780" y="375" />
            </Array>
          </mxGeometry>
        </mxCell>
        <mxCell id="5DY0pSpCPIeUGOgnQsvo-8" value="Livro" style="whiteSpace=wrap;html=1;aspect=fixed;" parent="1" vertex="1">
          <mxGeometry x="700" y="260" width="80" height="80" as="geometry" />
        </mxCell>
        <mxCell id="5DY0pSpCPIeUGOgnQsvo-34" style="edgeStyle=orthogonalEdgeStyle;rounded=0;orthogonalLoop=1;jettySize=auto;html=1;exitX=0.5;exitY=0;exitDx=0;exitDy=0;entryX=0.5;entryY=1;entryDx=0;entryDy=0;endArrow=none;endFill=0;" parent="1" source="5DY0pSpCPIeUGOgnQsvo-9" target="5DY0pSpCPIeUGOgnQsvo-22" edge="1">
          <mxGeometry relative="1" as="geometry" />
        </mxCell>
        <mxCell id="5DY0pSpCPIeUGOgnQsvo-9" value="Assunto" style="whiteSpace=wrap;html=1;aspect=fixed;" parent="1" vertex="1">
          <mxGeometry x="740" y="540" width="80" height="80" as="geometry" />
        </mxCell>
        <mxCell id="5DY0pSpCPIeUGOgnQsvo-44" style="edgeStyle=orthogonalEdgeStyle;rounded=0;orthogonalLoop=1;jettySize=auto;html=1;exitX=0;exitY=0.5;exitDx=0;exitDy=0;entryX=1;entryY=0;entryDx=0;entryDy=0;endArrow=none;endFill=0;" parent="1" source="5DY0pSpCPIeUGOgnQsvo-13" target="5DY0pSpCPIeUGOgnQsvo-8" edge="1">
          <mxGeometry relative="1" as="geometry" />
        </mxCell>
        <mxCell id="5DY0pSpCPIeUGOgnQsvo-13" value="" style="ellipse;whiteSpace=wrap;html=1;aspect=fixed;fillColor=#000000;" parent="1" vertex="1">
          <mxGeometry x="800" y="220" width="40" height="40" as="geometry" />
        </mxCell>
        <mxCell id="5DY0pSpCPIeUGOgnQsvo-43" style="edgeStyle=orthogonalEdgeStyle;rounded=0;orthogonalLoop=1;jettySize=auto;html=1;exitX=0;exitY=0.5;exitDx=0;exitDy=0;entryX=1;entryY=0.5;entryDx=0;entryDy=0;endArrow=none;endFill=0;" parent="1" source="5DY0pSpCPIeUGOgnQsvo-14" target="5DY0pSpCPIeUGOgnQsvo-8" edge="1">
          <mxGeometry relative="1" as="geometry" />
        </mxCell>
        <mxCell id="5DY0pSpCPIeUGOgnQsvo-14" value="" style="ellipse;whiteSpace=wrap;html=1;aspect=fixed;" parent="1" vertex="1">
          <mxGeometry x="800" y="280" width="40" height="40" as="geometry" />
        </mxCell>
        <mxCell id="5DY0pSpCPIeUGOgnQsvo-42" style="edgeStyle=orthogonalEdgeStyle;rounded=0;orthogonalLoop=1;jettySize=auto;html=1;exitX=0;exitY=0.5;exitDx=0;exitDy=0;entryX=1;entryY=1;entryDx=0;entryDy=0;endArrow=none;endFill=0;" parent="1" source="5DY0pSpCPIeUGOgnQsvo-15" target="5DY0pSpCPIeUGOgnQsvo-8" edge="1">
          <mxGeometry relative="1" as="geometry" />
        </mxCell>
        <mxCell id="5DY0pSpCPIeUGOgnQsvo-15" value="" style="ellipse;whiteSpace=wrap;html=1;aspect=fixed;" parent="1" vertex="1">
          <mxGeometry x="800" y="340" width="40" height="40" as="geometry" />
        </mxCell>
        <mxCell id="5DY0pSpCPIeUGOgnQsvo-17" value="" style="ellipse;whiteSpace=wrap;html=1;aspect=fixed;fillColor=#000000;" parent="1" vertex="1">
          <mxGeometry x="840" y="590" width="40" height="40" as="geometry" />
        </mxCell>
        <mxCell id="5DY0pSpCPIeUGOgnQsvo-18" value="" style="ellipse;whiteSpace=wrap;html=1;aspect=fixed;fillColor=#000000;strokeColor=#000000;" parent="1" vertex="1">
          <mxGeometry x="840" y="530" width="40" height="40" as="geometry" />
        </mxCell>
        <mxCell id="5DY0pSpCPIeUGOgnQsvo-47" style="edgeStyle=orthogonalEdgeStyle;rounded=0;orthogonalLoop=1;jettySize=auto;html=1;exitX=1;exitY=0.5;exitDx=0;exitDy=0;endArrow=none;endFill=0;" parent="1" source="5DY0pSpCPIeUGOgnQsvo-19" target="5DY0pSpCPIeUGOgnQsvo-8" edge="1">
          <mxGeometry relative="1" as="geometry" />
        </mxCell>
        <mxCell id="5DY0pSpCPIeUGOgnQsvo-19" value="Pegou" style="rhombus;whiteSpace=wrap;html=1;" parent="1" vertex="1">
          <mxGeometry x="490" y="260" width="80" height="80" as="geometry" />
        </mxCell>
        <mxCell id="5DY0pSpCPIeUGOgnQsvo-58" style="edgeStyle=orthogonalEdgeStyle;rounded=0;orthogonalLoop=1;jettySize=auto;html=1;exitX=1;exitY=0.5;exitDx=0;exitDy=0;entryX=0;entryY=1;entryDx=0;entryDy=0;endArrow=none;endFill=0;" parent="1" source="5DY0pSpCPIeUGOgnQsvo-20" target="5DY0pSpCPIeUGOgnQsvo-8" edge="1">
          <mxGeometry relative="1" as="geometry">
            <mxPoint x="640" y="330" as="targetPoint" />
          </mxGeometry>
        </mxCell>
        <mxCell id="5DY0pSpCPIeUGOgnQsvo-20" value="Reservou" style="rhombus;whiteSpace=wrap;html=1;" parent="1" vertex="1">
          <mxGeometry x="490" y="400" width="80" height="80" as="geometry" />
        </mxCell>
        <mxCell id="5DY0pSpCPIeUGOgnQsvo-57" style="edgeStyle=orthogonalEdgeStyle;rounded=0;orthogonalLoop=1;jettySize=auto;html=1;exitX=1;exitY=0.5;exitDx=0;exitDy=0;entryX=0.5;entryY=1;entryDx=0;entryDy=0;endArrow=none;endFill=0;" parent="1" source="5DY0pSpCPIeUGOgnQsvo-21" target="5DY0pSpCPIeUGOgnQsvo-8" edge="1">
          <mxGeometry relative="1" as="geometry">
            <mxPoint x="720" y="360" as="targetPoint" />
            <Array as="points">
              <mxPoint x="720" y="580" />
              <mxPoint x="720" y="340" />
            </Array>
          </mxGeometry>
        </mxCell>
        <mxCell id="5DY0pSpCPIeUGOgnQsvo-21" value="Escreveu" style="rhombus;whiteSpace=wrap;html=1;" parent="1" vertex="1">
          <mxGeometry x="490" y="540" width="80" height="80" as="geometry" />
        </mxCell>
        <mxCell id="5DY0pSpCPIeUGOgnQsvo-22" value="Classificado" style="rhombus;whiteSpace=wrap;html=1;" parent="1" vertex="1">
          <mxGeometry x="740" y="410" width="80" height="80" as="geometry" />
        </mxCell>
        <mxCell id="5DY0pSpCPIeUGOgnQsvo-59" style="edgeStyle=orthogonalEdgeStyle;rounded=0;orthogonalLoop=1;jettySize=auto;html=1;exitX=1;exitY=0.5;exitDx=0;exitDy=0;entryX=0.5;entryY=1;entryDx=0;entryDy=0;endArrow=none;endFill=0;" parent="1" source="5DY0pSpCPIeUGOgnQsvo-23" target="5DY0pSpCPIeUGOgnQsvo-9" edge="1">
          <mxGeometry relative="1" as="geometry">
            <mxPoint x="720" y="630" as="targetPoint" />
            <Array as="points">
              <mxPoint x="780" y="730" />
            </Array>
          </mxGeometry>
        </mxCell>
        <mxCell id="5DY0pSpCPIeUGOgnQsvo-60" style="edgeStyle=orthogonalEdgeStyle;rounded=0;orthogonalLoop=1;jettySize=auto;html=1;exitX=0.5;exitY=0;exitDx=0;exitDy=0;endArrow=none;endFill=0;" parent="1" source="5DY0pSpCPIeUGOgnQsvo-23" edge="1">
          <mxGeometry relative="1" as="geometry">
            <mxPoint x="740" y="620" as="targetPoint" />
            <Array as="points">
              <mxPoint x="660" y="620" />
            </Array>
          </mxGeometry>
        </mxCell>
        <mxCell id="5DY0pSpCPIeUGOgnQsvo-23" value="Composto" style="rhombus;whiteSpace=wrap;html=1;" parent="1" vertex="1">
          <mxGeometry x="620" y="690" width="80" height="80" as="geometry" />
        </mxCell>
        <mxCell id="5DY0pSpCPIeUGOgnQsvo-41" style="edgeStyle=orthogonalEdgeStyle;rounded=0;orthogonalLoop=1;jettySize=auto;html=1;exitX=0;exitY=1;exitDx=0;exitDy=0;entryX=1;entryY=0;entryDx=0;entryDy=0;endArrow=none;endFill=0;" parent="1" source="5DY0pSpCPIeUGOgnQsvo-24" target="5DY0pSpCPIeUGOgnQsvo-19" edge="1">
          <mxGeometry relative="1" as="geometry" />
        </mxCell>
        <mxCell id="5DY0pSpCPIeUGOgnQsvo-24" value="" style="ellipse;whiteSpace=wrap;html=1;aspect=fixed;" parent="1" vertex="1">
          <mxGeometry x="560" y="240" width="40" height="40" as="geometry" />
        </mxCell>
        <mxCell id="5DY0pSpCPIeUGOgnQsvo-40" style="edgeStyle=orthogonalEdgeStyle;rounded=0;orthogonalLoop=1;jettySize=auto;html=1;exitX=0;exitY=0;exitDx=0;exitDy=0;entryX=1;entryY=1;entryDx=0;entryDy=0;endArrow=none;endFill=0;" parent="1" source="5DY0pSpCPIeUGOgnQsvo-25" target="5DY0pSpCPIeUGOgnQsvo-19" edge="1">
          <mxGeometry relative="1" as="geometry" />
        </mxCell>
        <mxCell id="5DY0pSpCPIeUGOgnQsvo-25" value="" style="ellipse;whiteSpace=wrap;html=1;aspect=fixed;" parent="1" vertex="1">
          <mxGeometry x="560" y="320" width="40" height="40" as="geometry" />
        </mxCell>
        <mxCell id="5DY0pSpCPIeUGOgnQsvo-39" style="edgeStyle=orthogonalEdgeStyle;rounded=0;orthogonalLoop=1;jettySize=auto;html=1;exitX=0;exitY=0;exitDx=0;exitDy=0;entryX=1;entryY=1;entryDx=0;entryDy=0;endArrow=none;endFill=0;" parent="1" source="5DY0pSpCPIeUGOgnQsvo-26" target="5DY0pSpCPIeUGOgnQsvo-20" edge="1">
          <mxGeometry relative="1" as="geometry" />
        </mxCell>
        <mxCell id="5DY0pSpCPIeUGOgnQsvo-26" value="" style="ellipse;whiteSpace=wrap;html=1;aspect=fixed;" parent="1" vertex="1">
          <mxGeometry x="560" y="460" width="40" height="40" as="geometry" />
        </mxCell>
        <mxCell id="5DY0pSpCPIeUGOgnQsvo-37" style="edgeStyle=orthogonalEdgeStyle;rounded=0;orthogonalLoop=1;jettySize=auto;html=1;exitX=0;exitY=0.5;exitDx=0;exitDy=0;entryX=0.98;entryY=0.878;entryDx=0;entryDy=0;entryPerimeter=0;endArrow=none;endFill=0;" parent="1" source="5DY0pSpCPIeUGOgnQsvo-17" target="5DY0pSpCPIeUGOgnQsvo-9" edge="1">
          <mxGeometry relative="1" as="geometry" />
        </mxCell>
        <mxCell id="5DY0pSpCPIeUGOgnQsvo-38" style="edgeStyle=orthogonalEdgeStyle;rounded=0;orthogonalLoop=1;jettySize=auto;html=1;exitX=0;exitY=0.5;exitDx=0;exitDy=0;entryX=1;entryY=0.125;entryDx=0;entryDy=0;entryPerimeter=0;endArrow=none;endFill=0;" parent="1" source="5DY0pSpCPIeUGOgnQsvo-18" target="5DY0pSpCPIeUGOgnQsvo-9" edge="1">
          <mxGeometry relative="1" as="geometry" />
        </mxCell>
        <mxCell id="9x-W5iKNOteX7X35HXdL-17" style="edgeStyle=orthogonalEdgeStyle;rounded=0;orthogonalLoop=1;jettySize=auto;html=1;exitX=1;exitY=0.5;exitDx=0;exitDy=0;entryX=0;entryY=0;entryDx=0;entryDy=0;endArrow=none;endFill=0;" edge="1" parent="1" source="9x-W5iKNOteX7X35HXdL-14" target="5DY0pSpCPIeUGOgnQsvo-7">
          <mxGeometry relative="1" as="geometry" />
        </mxCell>
        <mxCell id="9x-W5iKNOteX7X35HXdL-14" value="" style="ellipse;whiteSpace=wrap;html=1;aspect=fixed;fillColor=#000000;" vertex="1" parent="1">
          <mxGeometry x="250" y="500" width="40" height="40" as="geometry" />
        </mxCell>
        <mxCell id="9x-W5iKNOteX7X35HXdL-18" style="edgeStyle=orthogonalEdgeStyle;rounded=0;orthogonalLoop=1;jettySize=auto;html=1;exitX=1;exitY=0.5;exitDx=0;exitDy=0;entryX=0;entryY=0.5;entryDx=0;entryDy=0;endArrow=none;endFill=0;" edge="1" parent="1" source="9x-W5iKNOteX7X35HXdL-15" target="5DY0pSpCPIeUGOgnQsvo-7">
          <mxGeometry relative="1" as="geometry" />
        </mxCell>
        <mxCell id="9x-W5iKNOteX7X35HXdL-15" value="" style="ellipse;whiteSpace=wrap;html=1;aspect=fixed;" vertex="1" parent="1">
          <mxGeometry x="250" y="560" width="40" height="40" as="geometry" />
        </mxCell>
        <mxCell id="9x-W5iKNOteX7X35HXdL-19" style="edgeStyle=orthogonalEdgeStyle;rounded=0;orthogonalLoop=1;jettySize=auto;html=1;exitX=1;exitY=0.5;exitDx=0;exitDy=0;entryX=0;entryY=1;entryDx=0;entryDy=0;endArrow=none;endFill=0;" edge="1" parent="1" source="9x-W5iKNOteX7X35HXdL-16" target="5DY0pSpCPIeUGOgnQsvo-7">
          <mxGeometry relative="1" as="geometry" />
        </mxCell>
        <mxCell id="9x-W5iKNOteX7X35HXdL-16" value="" style="ellipse;whiteSpace=wrap;html=1;aspect=fixed;" vertex="1" parent="1">
          <mxGeometry x="250" y="620" width="40" height="40" as="geometry" />
        </mxCell>
        <mxCell id="9x-W5iKNOteX7X35HXdL-20" value="matr" style="text;html=1;align=center;verticalAlign=middle;whiteSpace=wrap;rounded=0;" vertex="1" parent="1">
          <mxGeometry x="200" y="210" width="60" height="30" as="geometry" />
        </mxCell>
        <mxCell id="9x-W5iKNOteX7X35HXdL-21" value="email" style="text;html=1;align=center;verticalAlign=middle;whiteSpace=wrap;rounded=0;" vertex="1" parent="1">
          <mxGeometry x="200" y="360" width="60" height="30" as="geometry" />
        </mxCell>
        <mxCell id="9x-W5iKNOteX7X35HXdL-22" value="nome" style="text;html=1;align=center;verticalAlign=middle;whiteSpace=wrap;rounded=0;" vertex="1" parent="1">
          <mxGeometry x="200" y="260" width="60" height="30" as="geometry" />
        </mxCell>
        <mxCell id="9x-W5iKNOteX7X35HXdL-23" value="end" style="text;html=1;align=center;verticalAlign=middle;whiteSpace=wrap;rounded=0;" vertex="1" parent="1">
          <mxGeometry x="200" y="310" width="60" height="30" as="geometry" />
        </mxCell>
        <mxCell id="9x-W5iKNOteX7X35HXdL-24" value="dt-emp" style="text;html=1;align=center;verticalAlign=middle;whiteSpace=wrap;rounded=0;" vertex="1" parent="1">
          <mxGeometry x="550" y="210" width="60" height="30" as="geometry" />
        </mxCell>
        <mxCell id="9x-W5iKNOteX7X35HXdL-26" value="dt-dev" style="text;html=1;align=center;verticalAlign=middle;whiteSpace=wrap;rounded=0;" vertex="1" parent="1">
          <mxGeometry x="550" y="360" width="60" height="30" as="geometry" />
        </mxCell>
        <mxCell id="9x-W5iKNOteX7X35HXdL-27" value="dt-res" style="text;html=1;align=center;verticalAlign=middle;whiteSpace=wrap;rounded=0;" vertex="1" parent="1">
          <mxGeometry x="550" y="500" width="60" height="30" as="geometry" />
        </mxCell>
        <mxCell id="9x-W5iKNOteX7X35HXdL-28" value="1" style="text;html=1;align=center;verticalAlign=middle;whiteSpace=wrap;rounded=0;" vertex="1" parent="1">
          <mxGeometry x="360" y="275" width="60" height="30" as="geometry" />
        </mxCell>
        <mxCell id="9x-W5iKNOteX7X35HXdL-29" value="N" style="text;html=1;align=center;verticalAlign=middle;whiteSpace=wrap;rounded=0;" vertex="1" parent="1">
          <mxGeometry x="660" y="270" width="60" height="30" as="geometry" />
        </mxCell>
        <mxCell id="9x-W5iKNOteX7X35HXdL-30" value="cod" style="text;html=1;align=center;verticalAlign=middle;whiteSpace=wrap;rounded=0;" vertex="1" parent="1">
          <mxGeometry x="830" y="225" width="60" height="30" as="geometry" />
        </mxCell>
        <mxCell id="9x-W5iKNOteX7X35HXdL-31" value="titulo" style="text;html=1;align=center;verticalAlign=middle;whiteSpace=wrap;rounded=0;" vertex="1" parent="1">
          <mxGeometry x="830" y="285" width="60" height="30" as="geometry" />
        </mxCell>
        <mxCell id="9x-W5iKNOteX7X35HXdL-32" value="edicao" style="text;html=1;align=center;verticalAlign=middle;whiteSpace=wrap;rounded=0;" vertex="1" parent="1">
          <mxGeometry x="830" y="345" width="60" height="30" as="geometry" />
        </mxCell>
        <mxCell id="9x-W5iKNOteX7X35HXdL-33" value="cod" style="text;html=1;align=center;verticalAlign=middle;whiteSpace=wrap;rounded=0;" vertex="1" parent="1">
          <mxGeometry x="870" y="535" width="60" height="30" as="geometry" />
        </mxCell>
        <mxCell id="9x-W5iKNOteX7X35HXdL-36" value="nome" style="text;html=1;align=center;verticalAlign=middle;whiteSpace=wrap;rounded=0;" vertex="1" parent="1">
          <mxGeometry x="870" y="595" width="60" height="30" as="geometry" />
        </mxCell>
        <mxCell id="9x-W5iKNOteX7X35HXdL-37" value="cod" style="text;html=1;align=center;verticalAlign=middle;whiteSpace=wrap;rounded=0;" vertex="1" parent="1">
          <mxGeometry x="200" y="505" width="60" height="30" as="geometry" />
        </mxCell>
        <mxCell id="9x-W5iKNOteX7X35HXdL-38" value="nome" style="text;html=1;align=center;verticalAlign=middle;whiteSpace=wrap;rounded=0;" vertex="1" parent="1">
          <mxGeometry x="200" y="565" width="60" height="30" as="geometry" />
        </mxCell>
        <mxCell id="9x-W5iKNOteX7X35HXdL-39" value="nacion" style="text;html=1;align=center;verticalAlign=middle;whiteSpace=wrap;rounded=0;" vertex="1" parent="1">
          <mxGeometry x="200" y="625" width="60" height="30" as="geometry" />
        </mxCell>
        <mxCell id="9x-W5iKNOteX7X35HXdL-40" value="N" style="text;html=1;align=center;verticalAlign=middle;whiteSpace=wrap;rounded=0;" vertex="1" parent="1">
          <mxGeometry x="360" y="550" width="60" height="30" as="geometry" />
        </mxCell>
        <mxCell id="9x-W5iKNOteX7X35HXdL-41" value="sub-assunto" style="text;html=1;align=center;verticalAlign=middle;whiteSpace=wrap;rounded=0;" vertex="1" parent="1">
          <mxGeometry x="785" y="700" width="70" height="30" as="geometry" />
        </mxCell>
        <mxCell id="9x-W5iKNOteX7X35HXdL-42" value="assunto" style="text;html=1;align=center;verticalAlign=middle;whiteSpace=wrap;rounded=0;" vertex="1" parent="1">
          <mxGeometry x="600" y="620" width="60" height="30" as="geometry" />
        </mxCell>
        <mxCell id="9x-W5iKNOteX7X35HXdL-43" value="N" style="text;html=1;align=center;verticalAlign=middle;whiteSpace=wrap;rounded=0;" vertex="1" parent="1">
          <mxGeometry x="760" y="510" width="60" height="30" as="geometry" />
        </mxCell>
        <mxCell id="9x-W5iKNOteX7X35HXdL-44" value="N" style="text;html=1;align=center;verticalAlign=middle;whiteSpace=wrap;rounded=0;" vertex="1" parent="1">
          <mxGeometry x="760" y="390" width="60" height="30" as="geometry" />
        </mxCell>
        <mxCell id="9x-W5iKNOteX7X35HXdL-46" value="N" style="text;html=1;align=center;verticalAlign=middle;whiteSpace=wrap;rounded=0;" vertex="1" parent="1">
          <mxGeometry x="360" y="340" width="60" height="30" as="geometry" />
        </mxCell>
        <mxCell id="9x-W5iKNOteX7X35HXdL-47" value="N" style="text;html=1;align=center;verticalAlign=middle;whiteSpace=wrap;rounded=0;" vertex="1" parent="1">
          <mxGeometry x="640" y="660" width="60" height="30" as="geometry" />
        </mxCell>
        <mxCell id="9x-W5iKNOteX7X35HXdL-48" value="N" style="text;html=1;align=center;verticalAlign=middle;whiteSpace=wrap;rounded=0;" vertex="1" parent="1">
          <mxGeometry x="680" y="700" width="60" height="30" as="geometry" />
        </mxCell>
        <mxCell id="9x-W5iKNOteX7X35HXdL-49" value="N" style="text;html=1;align=center;verticalAlign=middle;whiteSpace=wrap;rounded=0;" vertex="1" parent="1">
          <mxGeometry x="700" y="340" width="60" height="30" as="geometry" />
        </mxCell>
        <mxCell id="9x-W5iKNOteX7X35HXdL-50" value="1" style="text;html=1;align=center;verticalAlign=middle;whiteSpace=wrap;rounded=0;" vertex="1" parent="1">
          <mxGeometry x="660" y="340" width="60" height="30" as="geometry" />
        </mxCell>
      </root>
    </mxGraphModel>
  </diagram>
</mxfile>
